<svg xmlns="http://www.w3.org/2000/svg" xmlns:xlink="http://www.w3.org/1999/xlink" version="1.1" x="0px" y="0px" viewBox="0 0 100 125" enable-background="new 0 0 100 100" xml:space="preserve"><g display="none"><rect x="-540.877" y="-37.172" display="inline" fill="#000000" width="1370.931" height="1263.231"/></g><g display="none" opacity="0.31"><g display="inline"><path d="M16.754,58.341l6.597,4.398l-0.078,0.045l2.098,1.302l0.758,0.506l0.029-0.017l14.119,8.759    c2.942,1.825,6.301,2.736,9.659,2.736c3.44,0,6.88-0.957,9.869-2.866l23.384-14.941l1.577,2.247l10.321-7.245L74.499,23.932    l-10.321,7.245l3.172,4.519H52.744l-2.913,3.241l-4.766-3.241H32.65l3.172-4.519l-10.321-7.245L4.912,53.263l10.321,7.245    L16.754,58.341z M73.767,28.11l17.142,24.421l-5.411,3.798L68.356,31.908L73.767,28.11z M54.081,38.695h15.374l12.009,17.108    L58.19,70.674c-4.939,3.156-11.349,3.2-16.331,0.109l-12.767-7.92l5.652-3.297l10.693-6.238l2.28,1.217    c5.967,3.182,13.187,2.107,17.969-2.674l1.282-1.282l-14.633-9.95L54.081,38.695z M44.142,38.695l18.027,12.258    c-3.764,2.79-8.797,3.207-13.04,0.944l-3.758-2.004L26.236,61.056l-7.729-5.153l0.1-0.201l11.938-17.007H44.142z M9.091,52.531    L26.233,28.11l5.411,3.798L14.502,56.329L9.091,52.531z"/></g></g><g><path d="M22.568,57.759c6.177,0,11.201-5.025,11.201-11.202s-5.025-11.201-11.201-11.201S11.366,40.38,11.366,46.557   S16.391,57.759,22.568,57.759z M22.568,40.069c3.578,0,6.488,2.91,6.488,6.488s-2.91,6.488-6.488,6.488s-6.488-2.911-6.488-6.488   S18.99,40.069,22.568,40.069z"/><path d="M9.714,74.243c0-4.813,3.915-8.728,8.728-8.728h8.251c0.247,0,0.492,0.01,0.734,0.031c0.683,0.059,1.361-0.17,1.857-0.626   c0.483-0.445,0.75-1.053,0.75-1.712c0-1.202-0.92-2.233-2.096-2.346c-0.41-0.039-0.825-0.06-1.245-0.06h-8.251   C11.03,60.801,5,66.831,5,74.243v0.969h4.714V74.243z"/><path d="M30.87,75.211h4.714v-5.803c0-5.44,4.426-9.866,9.867-9.866h9.099c5.44,0,9.867,4.426,9.867,9.866v5.803h4.714v-5.803   c0-4.921-2.471-9.48-6.61-12.194c-2.38-1.561-5.136-2.386-7.97-2.386h-9.099c-4.503,0-8.688,2.05-11.482,5.624   c-2.027,2.593-3.098,5.69-3.098,8.956V75.211z"/><path d="M81.558,60.801h-8.251c-0.231,0-0.46,0.007-0.688,0.019c-1.271,0.07-2.267,1.107-2.267,2.362   c0,0.648,0.269,1.273,0.739,1.716c0.473,0.445,1.092,0.668,1.736,0.631c0.159-0.01,0.319-0.014,0.48-0.014h8.251   c4.813,0,8.728,3.915,8.728,8.728v0.969H95v-0.969C95,66.831,88.97,60.801,81.558,60.801z"/><path d="M77.432,57.759c6.177,0,11.202-5.025,11.202-11.202s-5.025-11.201-11.202-11.201S66.23,40.38,66.23,46.557   S71.256,57.759,77.432,57.759z M77.432,40.069c3.578,0,6.488,2.91,6.488,6.488s-2.911,6.488-6.488,6.488s-6.488-2.911-6.488-6.488   S73.855,40.069,77.432,40.069z"/><path d="M50,52.971c7.769,0,14.091-6.321,14.091-14.091c0-7.77-6.321-14.091-14.091-14.091c-7.77,0-14.091,6.321-14.091,14.091   C35.909,46.649,42.23,52.971,50,52.971z M50,29.502c5.17,0,9.377,4.207,9.377,9.378c0,5.17-4.207,9.377-9.377,9.377   c-5.171,0-9.378-4.207-9.378-9.377C40.622,33.709,44.829,29.502,50,29.502z"/></g><text x="0" y="115" fill="#000000" font-size="5px" font-weight="bold" font-family="'Helvetica Neue', Helvetica, Arial-Unicode, Arial, Sans-serif">Created by Oksana Latysheva</text><text x="0" y="120" fill="#000000" font-size="5px" font-weight="bold" font-family="'Helvetica Neue', Helvetica, Arial-Unicode, Arial, Sans-serif">from the Noun Project</text></svg>