<svg xmlns="http://www.w3.org/2000/svg" data-name="Layer 1" viewBox="0 0 128 160" x="0px" y="0px"><title>miscellaneous 57 solid</title><path d="M116.042,93.40161A2.00092,2.00092,0,0,0,117.998,94.9928a2.04014,2.04014,0,0,0,.41113-.042,2.00173,2.00173,0,0,0,1.54883-2.36768A50.57015,50.57015,0,0,0,99.14063,61.3429a2.00007,2.00007,0,0,0-2.28125,3.28589A46.586,46.586,0,0,1,116.042,93.40161Z"/><path d="M81,102.99457A17,17,0,1,0,98,85.99084,17.02084,17.02084,0,0,0,81,102.99457Zm11.93555,3.66827a1.46289,1.46289,0,0,1,1.09766.549,5.72066,5.72066,0,0,0,4.09131,1.89685c2.27051,0,3.36816-.74915,3.36816-2.29639,0-3.6424-9.106-1.97113-9.106-7.98511,0-2.22021,1.397-4.14154,4.59033-4.49121V92.91376a1.16023,1.16023,0,1,1,2.32031,0v1.44659a6.38085,6.38085,0,0,1,4.49023,2.24658,1.44079,1.44079,0,0,1,.24951.798,1.3364,1.3364,0,0,1-1.34717,1.32251,1.65182,1.65182,0,0,1-1.07275-.54889A5.154,5.154,0,0,0,98.12451,96.856c-2.0708,0-2.84424.97382-2.84424,1.97113,0,3.26923,9.10645,1.74744,9.10645,7.98511,0,2.74573-1.74658,4.542-5.08936,4.86633v1.39777a1.16022,1.16022,0,1,1-2.32031,0v-1.39777a7.15907,7.15907,0,0,1-5.16456-2.96942,1.34271,1.34271,0,0,1,1.12306-2.04633Z"/><path d="M92.5791,50.18231a1.99918,1.99918,0,0,0-2.54785,1.51007c-.751.81366-4.97656,2.2915-12.03125,2.2915S66.71973,52.506,65.96875,51.69238A1.97348,1.97348,0,0,0,64,50.104v5.07971c4.00574,2.69769,12.76257,2.801,14,2.801,1.33691,0,11.46191-.11426,14.877-3.4978A46.3084,46.3084,0,0,1,124,98.63324c0,24.14-17.47949,25.36584-46,25.36584-5.02368,0-9.69659-.04138-14-.236v2.23645a5.98091,5.98091,0,0,1-.277,1.80109C68.32831,127.99921,73.13824,128,78,128c25.71289,0,50,0,50-29.36676A50.27028,50.27028,0,0,0,92.5791,50.18231Z"/><rect x="28" y="95.99304" width="4" height="4.00085"/><rect x="44" y="111.99652" width="4" height="4.00085"/><rect x="28" y="111.99652" width="4" height="4.00085"/><rect x="28" y="79.98956" width="4" height="4.00085"/><rect x="12" y="111.99652" width="4" height="4.00085"/><rect x="12" y="79.98956" width="4" height="4.00085"/><rect x="12" y="95.99304" width="4" height="4.00085"/><path d="M6,128H54a6.00724,6.00724,0,0,0,6-6.00134V51.98346a6.00719,6.00719,0,0,0-6-6.00128H6a6.00719,6.00719,0,0,0-6,6.00128v70.0152A6.00724,6.00724,0,0,0,6,128Zm30-12.00262a4.00038,4.00038,0,0,1-4,4.00085H28a4.00042,4.00042,0,0,1-4-4.00085v-4.00085a4.00047,4.00047,0,0,1,4-4.00092h4a4.00043,4.00043,0,0,1,4,4.00092ZM36,99.9939a4.00038,4.00038,0,0,1-4,4.00085H28a4.00042,4.00042,0,0,1-4-4.00085V95.993a4.00047,4.00047,0,0,1,4-4.00092h4A4.00043,4.00043,0,0,1,36,95.993Zm0-16.00348a4.00038,4.00038,0,0,1-4,4.00085H28a4.00042,4.00042,0,0,1-4-4.00085V79.98956a4.00047,4.00047,0,0,1,4-4.00092h4a4.00043,4.00043,0,0,1,4,4.00092Zm16,32.007a4.00038,4.00038,0,0,1-4,4.00085H44a4.00042,4.00042,0,0,1-4-4.00085v-4.00085a4.00047,4.00047,0,0,1,4-4.00092h4a4.00043,4.00043,0,0,1,4,4.00092ZM52,99.9939a4.00038,4.00038,0,0,1-4,4.00085H44a4.00042,4.00042,0,0,1-4-4.00085V95.993a4.00047,4.00047,0,0,1,4-4.00092h4A4.00043,4.00043,0,0,1,52,95.993Zm0-16.00348a4.00038,4.00038,0,0,1-4,4.00085H44a4.00042,4.00042,0,0,1-4-4.00085V79.98956a4.00047,4.00047,0,0,1,4-4.00092h4a4.00043,4.00043,0,0,1,4,4.00092ZM8,57.98474a4.00042,4.00042,0,0,1,4-4.00085H48a4.00038,4.00038,0,0,1,4,4.00085v10.0022a4.00038,4.00038,0,0,1-4,4.00085H12a4.00042,4.00042,0,0,1-4-4.00085ZM8,79.98956a4.00047,4.00047,0,0,1,4-4.00092h4a4.00043,4.00043,0,0,1,4,4.00092v4.00085a4.00038,4.00038,0,0,1-4,4.00085H12a4.00042,4.00042,0,0,1-4-4.00085ZM8,95.993a4.00047,4.00047,0,0,1,4-4.00092h4A4.00043,4.00043,0,0,1,20,95.993V99.9939a4.00038,4.00038,0,0,1-4,4.00085H12A4.00042,4.00042,0,0,1,8,99.9939Zm0,16.00348a4.00047,4.00047,0,0,1,4-4.00092h4a4.00043,4.00043,0,0,1,4,4.00092v4.00085a4.00038,4.00038,0,0,1-4,4.00085H12a4.00042,4.00042,0,0,1-4-4.00085Z"/><rect x="44" y="79.98956" width="4" height="4.00085"/><rect x="44" y="95.99304" width="4" height="4.00085"/><path d="M99.87988,11.6651H98.12012c-.67969,0-1.291.00586-1.83887.01172-.918.00879-1.85645.01855-2.42285-.02344-.09668-3.56519-3.21582-6.89209-9.52832-10.16626a14.21781,14.21781,0,0,0-12.66113,0C65.35742,4.76129,62.23828,8.0882,62.1416,11.65338c-.56543.042-1.50488.03223-2.42285.02344-.54785-.00586-1.15918-.01172-1.83887-.01172H56.12012a6.18686,6.18686,0,0,0-5.34277,2.97235,5.585,5.585,0,0,0-.77991,2.74768,5.34372,5.34372,0,0,0,.66663,2.70569L62.68359,43.93066a2.039,2.039,0,0,0,.32129.46191C65.47852,47.05176,72.373,48,78,48c5.4209,0,10.30957-.83984,13.05273-2.23535a6.6922,6.6922,0,0,0,1.93457-1.36426,1.99382,1.99382,0,0,0,.3291-.46973l11.9834-23.77148a5.54187,5.54187,0,0,0-.07715-5.52173A6.18686,6.18686,0,0,0,99.87988,11.6651ZM92.50061,36.66284A68.93917,68.93917,0,0,1,78,38a71.32706,71.32706,0,0,1-14.50476-1.34387l-2.5528-5.06293C62.61792,32.636,68.72522,34,78,34c6.6748,0,12.78418-.72949,15.94336-1.90527a6.25715,6.25715,0,0,0,1.11365-.50238Z"/><text x="0" y="143" fill="#000000" font-size="5px" font-weight="bold" font-family="'Helvetica Neue', Helvetica, Arial-Unicode, Arial, Sans-serif">Created by priyanka</text><text x="0" y="148" fill="#000000" font-size="5px" font-weight="bold" font-family="'Helvetica Neue', Helvetica, Arial-Unicode, Arial, Sans-serif">from the Noun Project</text></svg>