<svg xmlns="http://www.w3.org/2000/svg" xmlns:xlink="http://www.w3.org/1999/xlink" version="1.1" x="0px" y="0px" viewBox="0 0 100 125" style="enable-background:new 0 0 100 100;" xml:space="preserve"><path d="M52.9,64.5h22.3c1.1,0,2-0.9,2-2V59c0-1.1-0.9-2-2-2H52.9c-1.1,0-2,0.9-2,2v3.5C50.9,63.6,51.8,64.5,52.9,64.5  C52.9,64.5,52.9,64.5,52.9,64.5z"/><path d="M52.9,49.5h22.3c1.1,0,2-0.9,2-2V44c0-1.1-0.9-2-2-2H52.9c-1.1,0-2,0.9-2,2v3.5C50.9,48.6,51.8,49.5,52.9,49.5  C52.9,49.5,52.9,49.5,52.9,49.5z"/><path d="M20.3,71.4l6.3-2.8l8.1,3.2c0.9,0.4,1.9,0.4,2.8,0l2.2-0.9v9.9c-0.2,3.3,2.4,6.1,5.7,6.3c1,0.1,2.1-0.2,3-0.6l6.3-2.8  l8.1,3.2c0.9,0.4,1.9,0.4,2.8,0l7.9-3.2l6.3,2.8c3,1.5,6.6,0.3,8.1-2.6c0.5-0.9,0.7-1.9,0.6-3V34.5c0-4.1-3.3-7.5-7.4-7.5H60.3v-7.5  c0-4.1-3.3-7.5-7.5-7.5H19c-4.1,0-7.5,3.3-7.5,7.5v46.2c-0.2,3.3,2.3,6.1,5.7,6.3C18.2,72.1,19.3,71.9,20.3,71.4z M81,34.5v44.2  l-5.9-2.6c-0.9-0.4-2-0.4-2.9-0.1l-8.1,3.1L56.2,76c-0.9-0.4-2-0.4-2.9,0l-6.2,2.7V34.5L81,34.5z M19.1,19.5h33.8c0,0,0,3,0,7.5h-28  c-1.1,0-2,0.9-2,2v3.5c0,1.1,0.9,2,2,2h14.8V42H24.8c-1.1,0-2,0.9-2,2v3.5c0,1.1,0.9,2,2,2h14.9v13.2L36,64.1L28.1,61  c-0.9-0.4-2-0.4-2.9,0l-6.2,2.7L19.1,19.5z"/><text x="0" y="115" fill="#000000" font-size="5px" font-weight="bold" font-family="'Helvetica Neue', Helvetica, Arial-Unicode, Arial, Sans-serif">Created by Pawel Rak</text><text x="0" y="120" fill="#000000" font-size="5px" font-weight="bold" font-family="'Helvetica Neue', Helvetica, Arial-Unicode, Arial, Sans-serif">from the Noun Project</text></svg>