<svg xmlns="http://www.w3.org/2000/svg" xmlns:xlink="http://www.w3.org/1999/xlink" version="1.1" x="0px" y="0px" viewBox="0 0 100 125" enable-background="new 0 0 100 100" xml:space="preserve"><g><g><path d="M65.088,38.306C64.422,38.083,63.74,38,63.082,38h-0.139c-2,0-4.024,0.033-6.015-0.19L56.93,38H57v-0.165l-0.677-0.11    c-0.427-0.049-0.873-0.14-1.296-0.19c-1.298-0.154-2.606-0.329-3.906-0.449c-5.395-0.499-10.898-0.425-16.217-0.343    c-0.935,0.015-1.698,0.336-2.263,0.965c-1.058,1.176-1.068,2.986-0.981,3.916c0,0.249,0.015,0.513,0.032,0.789    c0.033,0.551,0.067,1.12-0.033,1.759c0,2.345,0,4.768-0.297,7.138c-0.535,4.28-0.537,8.46-0.006,13.152l1.218,10.764    c0.042,0.366,0.088,0.782,0.301,1.172c0.456,0.835,1.381,1.112,2.312,1.287c3.949,0.742,7.955,1.115,11.967,1.115    c1.872,0,3.747-0.082,5.617-0.244c0.466-0.041,0.933-0.086,1.399-0.132c1.308-0.128,2.66-0.261,3.984-0.27    c3.15-0.021,6.173-0.541,6.956-4.177c0.333-1.542,0.405-2.896,0.228-4.26c-0.125-0.971-0.058-2.021,0.007-3.037    c0.029-0.446,0.057-0.89,0.071-1.327c0.083-2.71,0.368-5.41,0.666-7.947c0.072-1.013,0.187-1.976,0.297-2.907    c0.065-0.548,0.13-1.096,0.187-1.655c0.209-0.707,0.225-1.557,0.199-2.088c0.27-2.985,0.314-5.963,0.338-8.721    C67.113,40.837,67.128,38.988,65.088,38.306z"/><path d="M28.406,31.956c0.031,0.794,0.073,1.882,0.851,2.341c0.556,0.328,1.199,0.314,1.709,0.304    c5.586-0.123,15.224,0.134,20.822,0.767c2.038,0,4.129,0.138,6.152,0.27c1.036,0.068,2.07,0.137,3.1,0.187    c0.396,0.021,0.875,0.104,1.384,0.194c0.694,0.123,5.435,0.254,6.136,0.254c0.709,0,1.379-0.134,1.922-0.545    c1.397-1.057,1.271-2.854,1.169-4.3c-0.014-0.199-0.028-0.393-0.037-0.578c-0.017-0.337-0.003-0.667,0.01-0.997    c0.022-0.563,0.044-1.146-0.067-1.762c-0.059-0.326-0.161-0.693-0.471-0.954c-0.282-0.235-0.629-0.281-0.859-0.312    c-2.25-0.296-8.541-0.486-10.807-0.568c-0.628-0.023-0.812-0.151-0.855-0.254c-0.03-0.072-0.026-0.213-0.023-0.336    c0.006-0.248,0.068-0.576,0.133-0.924c0.157-0.841,0.336-1.793-0.11-2.553c-0.291-0.379-0.761-0.451-1.015-0.489    c-2.186-0.331-4.218-0.499-6.042-0.499l-0.001,0.018c-0.181-0.015-0.345-0.018-0.449-0.018c-1.029,0-2.072,0.354-3.08,0.4    C46.976,21.646,45.94,22,44.923,22c-0.005,0-0.01,0-0.016,0c-0.833,0-1.415,0.003-1.759,0.621    c-0.309,0.556-0.361,1.114-0.413,1.803c-0.036,0.486-0.074,0.912-0.201,1.302c-0.028,0.086-0.05,0.101-0.041,0.101    c-0.029,0.013-0.125-0.001-0.167,0.002c-1.681,0.117-3.38,0.149-5.052,0.111c-0.181-0.004-0.41-0.023-0.665-0.04    c-1.362-0.085-6.542-0.126-7.208,0.294c-0.683,0.43-0.883,1.244-0.981,1.905c-0.156,1.046-0.169,2.182-0.041,3.378    C28.393,31.616,28.399,31.779,28.406,31.956z"/></g></g><text x="0" y="115" fill="#000000" font-size="5px" font-weight="bold" font-family="'Helvetica Neue', Helvetica, Arial-Unicode, Arial, Sans-serif">Created by Fabio Nucatolo</text><text x="0" y="120" fill="#000000" font-size="5px" font-weight="bold" font-family="'Helvetica Neue', Helvetica, Arial-Unicode, Arial, Sans-serif">from the Noun Project</text></svg>