<svg xmlns="http://www.w3.org/2000/svg" xmlns:xlink="http://www.w3.org/1999/xlink" version="1.1" x="0px" y="0px" viewBox="0 0 100 125" style="enable-background:new 0 0 100 100;" xml:space="preserve"><path d="M82.4,22.6l-5-5c-0.8-0.8-2-0.8-2.8,0L69.2,23H40c-0.5,0-1,0.2-1.4,0.6l-11,11C27.2,35,27,35.5,27,36v39c0,1.1,0.9,2,2,2h42  c1.1,0,2-0.9,2-2V34.8l9.4-9.4C83.2,24.6,83.2,23.4,82.4,22.6z M78.2,24l-1.3,1.3l-2.2-2.2l1.3-1.3L78.2,24z M54.2,48H52v-2.2  l21.3-21.3l2.2,2.2L54.2,48z M39,28.8V35h-6.2L39,28.8z M69,73H31V37h9c0.6,0,1-0.4,1-1v-9h24.2l-7,7H43v2h13.2l-4,4H37v2h13.2  l-1.6,1.6C48.2,44,48,44.5,48,45v1H37v2h11v2c0,1.1,0.9,2,2,2H37v2h26v-2h-8c0.5,0,1-0.2,1.4-0.6l3.4-3.4H63v-2h-1.2l7.2-7.2V73z   M37,58h26v2H37V58z M37,64h26v2H37V64z"/><text x="0" y="115" fill="#000000" font-size="5px" font-weight="bold" font-family="'Helvetica Neue', Helvetica, Arial-Unicode, Arial, Sans-serif">Created by Setyo Ari Wibowo</text><text x="0" y="120" fill="#000000" font-size="5px" font-weight="bold" font-family="'Helvetica Neue', Helvetica, Arial-Unicode, Arial, Sans-serif">from the Noun Project</text></svg>