<svg xmlns:dc="http://purl.org/dc/elements/1.1/" xmlns:cc="http://creativecommons.org/ns#" xmlns:rdf="http://www.w3.org/1999/02/22-rdf-syntax-ns#" xmlns:svg="http://www.w3.org/2000/svg" xmlns="http://www.w3.org/2000/svg" xmlns:sodipodi="http://sodipodi.sourceforge.net/DTD/sodipodi-0.dtd" xmlns:inkscape="http://www.inkscape.org/namespaces/inkscape" version="1.1" x="0px" y="0px" viewBox="0 0 100 125"><g transform="translate(0,-952.36218)"><path style="font-size:medium;font-style:normal;font-variant:normal;font-weight:normal;font-stretch:normal;text-indent:0;text-align:start;text-decoration:none;line-height:normal;letter-spacing:normal;word-spacing:normal;text-transform:none;direction:ltr;block-progression:tb;writing-mode:lr-tb;text-anchor:start;baseline-shift:baseline;opacity:1;color:#000000;fill:#000000;fill-opacity:1;stroke:none;stroke-width:2;marker:none;visibility:visible;display:inline;overflow:visible;enable-background:accumulate;font-family:Sans;-inkscape-font-specification:Sans" d="M 26 23 L 26 24 L 26 31 L 24 31 L 23 31 L 23 32 L 23 39 L 21 39 L 20 39 L 20 40 L 20 47 L 18 47 L 17 47 L 17 48 L 17 55 L 15 55 L 14 55 L 14 56 L 14 76 L 14 77 L 15 77 L 78 77 L 78 75 L 16 75 L 16 57 L 35.3125 57 L 38.0625 64.34375 L 38.3125 65 L 39 65 L 61 65 L 61.6875 65 L 61.9375 64.34375 L 64.6875 57 L 84 57 L 84 77 L 86 77 L 86 56 L 86 55 L 85 55 L 83 55 L 83 48 L 83 47 L 82 47 L 80 47 L 80 40 L 80 39 L 79 39 L 77 39 L 77 32 L 77 31 L 76 31 L 74 31 L 74 24 L 74 23 L 73 23 L 27 23 L 26 23 z M 28 25 L 72 25 L 72 31 L 28 31 L 28 25 z M 25 33 L 75 33 L 75 39 L 25 39 L 25 33 z M 22 41 L 78 41 L 78 47 L 22 47 L 22 41 z M 19 49 L 81 49 L 81 55 L 64 55 L 63.3125 55 L 63.0625 55.625 L 60.3125 63 L 39.6875 63 L 36.9375 55.625 L 36.6875 55 L 36 55 L 19 55 L 19 49 z " transform="translate(0,952.36218)"/></g><text x="0" y="115" fill="#000000" font-size="5px" font-weight="bold" font-family="'Helvetica Neue', Helvetica, Arial-Unicode, Arial, Sans-serif">Created by throwaway icons</text><text x="0" y="120" fill="#000000" font-size="5px" font-weight="bold" font-family="'Helvetica Neue', Helvetica, Arial-Unicode, Arial, Sans-serif">from the Noun Project</text></svg>